<svg width="100" height="100" fill="none" xmlns="http://www.w3.org/2000/svg"><g clip-path="url(#a)"><path d="M90.181 87.931H9.819C4.397 87.931 0 83.534 0 78.112V21.888c0-5.423 4.397-9.819 9.819-9.819h80.362c5.422 0 9.819 4.396 9.819 9.819v56.224c0 5.422-4.397 9.819-9.819 9.819Z" fill="#DD352E"/><path d="M36.207 68.155v-36.31c0-1.881 2.047-3.05 3.667-2.093l30.724 18.155c1.592.941 1.592 3.245 0 4.184L39.874 70.246c-1.62.96-3.667-.21-3.667-2.09Z" fill="#fff"/></g><defs><clipPath id="a"><path fill="#fff" d="M0 0h100v100H0z"/></clipPath></defs></svg>