<svg width="287" height="133" fill="none" xmlns="http://www.w3.org/2000/svg"><path d="M243.057 67.296c0 2.143-.284 4.21-.853 6.202a22.759 22.759 0 0 1-2.365 5.552 24.688 24.688 0 0 1-3.678 4.709 23.62 23.62 0 0 1-4.762 3.636 24.127 24.127 0 0 1-5.649 2.37 23.708 23.708 0 0 1-6.24.813h-14.188V44.015h14.188c2.167 0 4.247.281 6.24.844a23 23 0 0 1 10.411 6.007 23.409 23.409 0 0 1 3.678 4.708 22.063 22.063 0 0 1 2.365 5.553 22.12 22.12 0 0 1 .853 6.17Zm-9.425 0c0-1.927-.372-3.734-1.117-5.423a13.481 13.481 0 0 0-3.021-4.415c-1.27-1.278-2.77-2.284-4.5-3.02-1.707-.736-3.536-1.104-5.484-1.104h-4.697v27.924h4.697c1.948 0 3.777-.357 5.484-1.071 1.73-.736 3.23-1.732 4.5-2.987a13.85 13.85 0 0 0 3.021-4.449 13.51 13.51 0 0 0 1.117-5.455ZM287 76.615c0 1.927-.372 3.734-1.117 5.423a14.305 14.305 0 0 1-3.054 4.448 14.386 14.386 0 0 1-4.466 2.988c-1.708.736-3.536 1.104-5.485 1.104H249.33V44.015h23.548c1.949 0 3.777.368 5.485 1.104a14.107 14.107 0 0 1 4.466 3.02 13.917 13.917 0 0 1 3.054 4.415c.745 1.689 1.117 3.496 1.117 5.423 0 .866-.12 1.753-.361 2.663-.241.909-.58 1.785-1.018 2.63a11.348 11.348 0 0 1-1.577 2.305 8.938 8.938 0 0 1-2.036 1.721 7.23 7.23 0 0 1 2.069 1.689 11.304 11.304 0 0 1 1.576 2.305c.438.844.767 1.732.986 2.663.241.909.361 1.796.361 2.662Zm-28.244 4.644h14.122c.657 0 1.27-.12 1.839-.358a4.607 4.607 0 0 0 2.496-2.468 4.57 4.57 0 0 0 .361-1.818c0-.65-.12-1.255-.361-1.818a4.305 4.305 0 0 0-1.018-1.461 4.36 4.36 0 0 0-1.478-1.007 4.715 4.715 0 0 0-1.839-.357h-14.122v9.287Zm0-18.606h14.122c.657 0 1.27-.12 1.839-.357a4.607 4.607 0 0 0 2.496-2.468 4.807 4.807 0 0 0 .361-1.851c0-.65-.12-1.255-.361-1.818a4.305 4.305 0 0 0-1.018-1.462 4.358 4.358 0 0 0-1.478-1.006 4.714 4.714 0 0 0-1.839-.357h-14.122v9.319Z" fill="#fff"/><path fill-rule="evenodd" clip-rule="evenodd" d="M0 110.069h286.436v11.465c0 6.333-7.528 11.466-16.815 11.466H16.815C7.528 133 0 127.867 0 121.534v-11.465Zm33.63 5.535h24.353c3.202 0 5.798 1.77 5.798 3.954v3.953c0 2.184-2.596 3.954-5.798 3.954H33.63c-3.202 0-5.798-1.77-5.798-3.954v-3.953c0-2.184 2.596-3.954 5.798-3.954Zm89.294 0H98.571c-3.202 0-5.798 1.77-5.798 3.954v3.953c0 2.184 2.596 3.954 5.798 3.954h24.353c3.202 0 5.798-1.77 5.798-3.954v-3.953c0-2.184-2.596-3.954-5.798-3.954Zm40.588 0h24.353c3.202 0 5.798 1.77 5.798 3.954v3.953c0 2.184-2.596 3.954-5.798 3.954h-24.353c-3.202 0-5.798-1.77-5.798-3.954v-3.953c0-2.184 2.596-3.954 5.798-3.954Zm89.294 0h-24.353c-3.202 0-5.798 1.77-5.798 3.954v3.953c0 2.184 2.596 3.954 5.798 3.954h24.353c3.202 0 5.798-1.77 5.798-3.954v-3.953c0-2.184-2.596-3.954-5.798-3.954ZM0 22.931h286.436V11.465C286.436 5.134 278.908 0 269.621 0H16.815C7.528 0 0 5.133 0 11.466V22.93Zm33.63-5.535h24.353c3.202 0 5.798-1.77 5.798-3.954V9.49c0-2.184-2.596-3.954-5.798-3.954H33.63c-3.202 0-5.798 1.77-5.798 3.954v3.953c0 2.184 2.596 3.954 5.798 3.954Zm89.294 0H98.571c-3.202 0-5.798-1.77-5.798-3.954V9.49c0-2.184 2.596-3.954 5.798-3.954h24.353c3.202 0 5.798 1.77 5.798 3.954v3.953c0 2.184-2.596 3.954-5.798 3.954Zm40.588 0h24.353c3.202 0 5.798-1.77 5.798-3.954V9.49c0-2.184-2.596-3.954-5.798-3.954h-24.353c-3.202 0-5.798 1.77-5.798 3.954v3.953c0 2.184 2.596 3.954 5.798 3.954Zm89.294 0h-24.353c-3.202 0-5.798-1.77-5.798-3.954V9.49c0-2.184 2.596-3.954 5.798-3.954h24.353c3.202 0 5.798 1.77 5.798 3.954v3.953c0 2.184-2.596 3.954-5.798 3.954Z" fill="#fff"/><path d="M47.062 91.956h-9.393V57.478c0-.673-.131-1.302-.394-1.885a4.47 4.47 0 0 0-1.018-1.516 4.354 4.354 0 0 0-1.478-1.043 4.571 4.571 0 0 0-1.84-.37c-.656 0-1.27.123-1.838.37a4.71 4.71 0 0 0-2.496 2.559 4.894 4.894 0 0 0-.361 1.885v34.478h-9.426V57.478c0-.673-.12-1.302-.361-1.885a4.468 4.468 0 0 0-1.018-1.516 4.354 4.354 0 0 0-1.478-1.043 4.572 4.572 0 0 0-1.84-.37c-.656 0-1.27.123-1.838.37a4.712 4.712 0 0 0-2.496 2.559 4.894 4.894 0 0 0-.362 1.885v34.478H0V57.478c0-1.998.361-3.872 1.084-5.623.744-1.773 1.751-3.31 3.021-4.613a14.014 14.014 0 0 1 4.5-3.097A13.515 13.515 0 0 1 14.121 43c1.751 0 3.437.325 5.057.976a13.434 13.434 0 0 1 4.368 2.761 13.527 13.527 0 0 1 4.335-2.76A13.442 13.442 0 0 1 32.939 43c1.948 0 3.777.382 5.484 1.145 1.73.74 3.23 1.773 4.5 3.097 1.291 1.302 2.298 2.84 3.02 4.613.745 1.751 1.117 3.625 1.117 5.623v34.478Zm54.582-23.939c0 2.29-.296 4.5-.887 6.633a25.694 25.694 0 0 1-2.43 5.96 24.858 24.858 0 0 1-3.81 5.05 25.383 25.383 0 0 1-4.926 3.94 23.657 23.657 0 0 1-5.813 2.49c-2.08.607-4.237.91-6.47.91-2.233 0-4.39-.303-6.47-.91a24.396 24.396 0 0 1-5.812-2.49 25.383 25.383 0 0 1-4.926-3.94 25.842 25.842 0 0 1-3.843-5.05 26.79 26.79 0 0 1-2.463-5.96 25.605 25.605 0 0 1-.854-6.633c0-2.29.285-4.5.854-6.633a25.94 25.94 0 0 1 2.463-5.96 25.848 25.848 0 0 1 3.843-5.05 24.403 24.403 0 0 1 4.926-3.906 24.4 24.4 0 0 1 5.813-2.492 23.01 23.01 0 0 1 6.47-.909c2.233 0 4.39.303 6.47.91a23.661 23.661 0 0 1 5.812 2.491 24.403 24.403 0 0 1 4.926 3.906 24.863 24.863 0 0 1 3.81 5.05 24.919 24.919 0 0 1 2.43 5.96c.591 2.132.887 4.343.887 6.633Zm-9.36 0c0-2.11-.394-4.097-1.182-5.96-.788-1.885-1.861-3.513-3.219-4.882-1.335-1.392-2.923-2.491-4.762-3.3-1.817-.808-3.755-1.212-5.813-1.212-2.08 0-4.028.404-5.845 1.212a15.227 15.227 0 0 0-4.762 3.3c-1.358 1.37-2.43 2.997-3.219 4.882-.788 1.863-1.182 3.85-1.182 5.96s.394 4.096 1.182 5.96a15.758 15.758 0 0 0 3.219 4.848 15.227 15.227 0 0 0 4.762 3.3c1.817.808 3.765 1.212 5.845 1.212 2.058 0 3.996-.404 5.813-1.212 1.84-.808 3.427-1.908 4.762-3.3a15.757 15.757 0 0 0 3.219-4.849c.788-1.863 1.182-3.85 1.182-5.96Zm50.707-24.344-15.468 48.283h-9.426l-15.402-48.283h10.706l9.393 32.223 9.425-32.223h10.772Zm13.957 48.283h-9.425V43.673h9.425v48.283Zm41.052 0h-32.283V43.673H198v9.664h-22.858V63h15.469v9.663h-15.469v9.63H198v9.663Z" fill="#81BECB"/></svg>