<svg width="155" height="72" fill="none" xmlns="http://www.w3.org/2000/svg"><path d="M131.268 36.431a12.2 12.2 0 0 1-.461 3.357 12.326 12.326 0 0 1-1.277 3.006 13.357 13.357 0 0 1-1.987 2.55 12.737 12.737 0 0 1-2.572 1.968c-.946.55-1.963.978-3.05 1.283-1.076.293-2.2.44-3.37.44h-7.663V23.828h7.663c1.17 0 2.294.152 3.37.457a12.406 12.406 0 0 1 5.622 3.252 12.666 12.666 0 0 1 1.987 2.548 11.95 11.95 0 0 1 1.277 3.006c.307 1.066.461 2.18.461 3.34Zm-5.091 0a7.21 7.21 0 0 0-.603-2.936 7.311 7.311 0 0 0-1.631-2.39 7.566 7.566 0 0 0-2.43-1.635 7.392 7.392 0 0 0-2.962-.598h-2.537V43.99h2.537a7.586 7.586 0 0 0 2.962-.58 7.713 7.713 0 0 0 2.43-1.618 7.51 7.51 0 0 0 1.631-2.408c.402-.926.603-1.91.603-2.953ZM155 41.476a7.21 7.21 0 0 1-.603 2.935 7.745 7.745 0 0 1-1.65 2.409 7.744 7.744 0 0 1-2.412 1.617 7.384 7.384 0 0 1-2.962.598h-12.717V23.828h12.717c1.053 0 2.04.199 2.962.597a7.595 7.595 0 0 1 2.412 1.635 7.535 7.535 0 0 1 1.65 2.39 7.21 7.21 0 0 1 .603 2.936c0 .469-.065.95-.195 1.441-.13.493-.313.967-.55 1.424-.236.457-.52.873-.851 1.248a4.828 4.828 0 0 1-1.1.932 3.9 3.9 0 0 1 1.117.914 6.223 6.223 0 0 1 1.384 2.69c.13.492.195.972.195 1.44Zm-15.254 2.514h7.627a2.539 2.539 0 0 0 1.792-.721 2.483 2.483 0 0 0 .745-1.793c0-.352-.066-.68-.196-.984a2.334 2.334 0 0 0-.549-.791 2.353 2.353 0 0 0-.799-.545 2.539 2.539 0 0 0-.993-.194h-7.627v5.028Zm0-10.073h7.627a2.539 2.539 0 0 0 1.792-.72c.236-.235.419-.504.549-.809.13-.316.196-.65.196-1.002 0-.351-.066-.68-.196-.984a2.333 2.333 0 0 0-.549-.791 2.353 2.353 0 0 0-.799-.545 2.539 2.539 0 0 0-.993-.194h-7.627v5.045Z" fill="#fff"/><path fill-rule="evenodd" clip-rule="evenodd" d="M0 59.586h154.695v6.207c0 3.428-4.065 6.207-9.081 6.207H9.081C4.066 72 0 69.221 0 65.793v-6.207Zm18.163 2.997h13.152c1.73 0 3.131.958 3.131 2.14v2.14c0 1.182-1.402 2.14-3.131 2.14H18.163c-1.73 0-3.132-.958-3.132-2.14v-2.14c0-1.182 1.402-2.14 3.132-2.14Zm48.225 0H53.235c-1.73 0-3.131.958-3.131 2.14v2.14c0 1.182 1.402 2.14 3.131 2.14h13.153c1.729 0 3.131-.958 3.131-2.14v-2.14c0-1.182-1.402-2.14-3.132-2.14Zm21.92 0h13.152c1.73 0 3.132.958 3.132 2.14v2.14c0 1.182-1.402 2.14-3.132 2.14H88.308c-1.73 0-3.132-.958-3.132-2.14v-2.14c0-1.182 1.402-2.14 3.132-2.14Zm48.225 0h-13.152c-1.73 0-3.132.958-3.132 2.14v2.14c0 1.182 1.402 2.14 3.132 2.14h13.152c1.729 0 3.131-.958 3.131-2.14v-2.14c0-1.182-1.402-2.14-3.131-2.14ZM0 12.414h154.695V6.207c0-3.428-4.065-6.207-9.081-6.207H9.081C4.066 0 0 2.779 0 6.207v6.207Zm18.163-2.997h13.152c1.73 0 3.131-.958 3.131-2.14v-2.14c0-1.182-1.402-2.14-3.131-2.14H18.163c-1.73 0-3.132.958-3.132 2.14v2.14c0 1.182 1.402 2.14 3.132 2.14Zm48.225 0H53.235c-1.73 0-3.131-.958-3.131-2.14v-2.14c0-1.182 1.402-2.14 3.131-2.14h13.153c1.729 0 3.131.958 3.131 2.14v2.14c0 1.182-1.402 2.14-3.132 2.14Zm21.92 0h13.152c1.73 0 3.132-.958 3.132-2.14v-2.14c0-1.182-1.402-2.14-3.132-2.14H88.308c-1.73 0-3.132.958-3.132 2.14v2.14c0 1.182 1.402 2.14 3.132 2.14Zm48.225 0h-13.152c-1.73 0-3.132-.958-3.132-2.14v-2.14c0-1.182 1.402-2.14 3.132-2.14h13.152c1.729 0 3.131.958 3.131 2.14v2.14c0 1.182-1.402 2.14-3.131 2.14Z" fill="#fff"/><path d="M25.432 49.436h-5.076V30.818c0-.364-.07-.703-.213-1.018a2.414 2.414 0 0 0-.55-.818 2.352 2.352 0 0 0-.798-.564 2.471 2.471 0 0 0-.994-.2 2.48 2.48 0 0 0-.994.2 2.547 2.547 0 0 0-1.349 1.382 2.64 2.64 0 0 0-.195 1.018v18.618h-5.094V30.818a2.64 2.64 0 0 0-.195-1.018 2.412 2.412 0 0 0-.55-.818 2.352 2.352 0 0 0-.799-.564 2.47 2.47 0 0 0-.994-.2 2.47 2.47 0 0 0-.993.2 2.546 2.546 0 0 0-1.35 1.382 2.64 2.64 0 0 0-.194 1.018v18.618H0V30.818c0-1.079.195-2.09.586-3.036a7.911 7.911 0 0 1 1.632-2.491 7.574 7.574 0 0 1 2.432-1.673A7.309 7.309 0 0 1 7.63 23a7.27 7.27 0 0 1 2.734.527 7.26 7.26 0 0 1 2.36 1.491 7.31 7.31 0 0 1 2.343-1.49A7.27 7.27 0 0 1 17.8 23c1.053 0 2.04.206 2.964.618a7.33 7.33 0 0 1 2.431 1.673 7.524 7.524 0 0 1 1.633 2.49c.402.946.603 1.958.603 3.037v18.618ZM54.929 36.51c0 1.236-.16 2.43-.48 3.58a13.876 13.876 0 0 1-1.313 3.22 13.716 13.716 0 0 1-4.72 4.855 12.79 12.79 0 0 1-3.142 1.344c-1.124.327-2.29.491-3.496.491-1.207 0-2.372-.164-3.496-.49a13.188 13.188 0 0 1-3.142-1.346 13.961 13.961 0 0 1-4.739-4.855 14.456 14.456 0 0 1-1.33-3.218 13.819 13.819 0 0 1-.462-3.582c0-1.236.154-2.43.461-3.582.32-1.151.764-2.224 1.332-3.218a13.961 13.961 0 0 1 2.076-2.727 13.186 13.186 0 0 1 2.662-2.11c.982-.581 2.03-1.03 3.142-1.345a12.45 12.45 0 0 1 3.496-.49c1.207 0 2.372.163 3.496.49a12.79 12.79 0 0 1 3.141 1.346 13.429 13.429 0 0 1 4.72 4.836 13.454 13.454 0 0 1 1.314 3.218c.32 1.152.48 2.346.48 3.582Zm-5.058 0a8.16 8.16 0 0 0-.64-3.22 8.18 8.18 0 0 0-1.739-2.636 7.967 7.967 0 0 0-2.573-1.781 7.65 7.65 0 0 0-3.141-.655 7.692 7.692 0 0 0-3.16.655 8.227 8.227 0 0 0-2.573 1.781 8.18 8.18 0 0 0-1.739 2.637 8.17 8.17 0 0 0-.639 3.218c0 1.14.213 2.212.639 3.218a8.511 8.511 0 0 0 1.74 2.619 8.227 8.227 0 0 0 2.573 1.781 7.692 7.692 0 0 0 3.159.655 7.65 7.65 0 0 0 3.141-.655 7.967 7.967 0 0 0 2.574-1.782 8.51 8.51 0 0 0 1.739-2.618 8.168 8.168 0 0 0 .639-3.218Zm27.402-13.146-8.36 26.072H63.82l-8.323-26.072h5.785l5.076 17.4 5.094-17.4h5.82Zm7.543 26.072h-5.094V23.364h5.094v26.072Zm22.184 0H89.554V23.364H107v5.218H94.648V33.8h8.359v5.218h-8.36v5.2H107v5.218Z" fill="#81BECB"/></svg>