<svg width="54" height="54" fill="none" xmlns="http://www.w3.org/2000/svg"><g clip-path="url(#a)"><path d="M48.698 47.483H5.302A5.303 5.303 0 0 1 0 42.18V11.82a5.303 5.303 0 0 1 5.302-5.303h43.396A5.303 5.303 0 0 1 54 11.82v30.362a5.303 5.303 0 0 1-5.302 5.302Z" fill="#DD352E"/><path d="M19.552 36.804V17.196a1.313 1.313 0 0 1 1.98-1.13l16.591 9.804c.86.508.86 1.752 0 2.26l-16.59 9.803a1.312 1.312 0 0 1-1.981-1.13Z" fill="#fff"/></g><defs><clipPath id="a"><path fill="#fff" d="M0 0h54v54H0z"/></clipPath></defs></svg>